<svg xmlns="http://www.w3.org/2000/svg" viewBox="0 0 500 500"><g id="freepik--character-2--inject-11"><path d="M267.49,93.59c.43-7.51,5.05-12.13,11.53-16a23.44,23.44,0,0,1,21.66-1c4.55,2.16,8.53,5.86,13.52,6.5,8.22,1.06,16-6.56,24.07-4.65a10.69,10.69,0,0,1-.78,21c5.38.79,8.43,7.59,6.44,12.66s-7.64,8-13.08,8.12-10.67-2.11-15.37-4.84-9.1-6-14-8.36-10.55-3.72-15.81-2.32c-7.11,1.89-12.16,8.61-14,15.74s-1.06,14.66.05,21.94,2.51,14.62,1.81,22a2.72,2.72,0,0,1-1,2.27c-1.09.6-2.34-.43-3.15-1.39A108.2,108.2,0,0,1,249,128.42c-2.48-7.81-3.85-15.4-.87-23s13-14.9,19.35-11.8" style="fill:#263238"></path><path d="M260.56,129.91l12,74.24c2.25,13.86,11.26,27.25,33,22.7h0c18.57-5.37,17.19-18.73,14.77-35.21h0s20.44-5.32,18.61-26.1c-.89-10-4.39-30.58-7.78-49.12a38.85,38.85,0,0,0-42.12-31.66l-2,.2C265.61,88.39,256.54,108.54,260.56,129.91Z" style="fill:#ffbf9d"></path><path d="M320.38,191.64s-13,2.08-27.83-5.27c0,0,8.15,15.44,28.68,11.48Z" style="fill:#ff9a6c"></path><path d="M324.17,137.21a3,3,0,0,1-2.56,3.27,2.84,2.84,0,0,1-3.32-2.36,3,3,0,0,1,2.55-3.28A2.85,2.85,0,0,1,324.17,137.21Z" style="fill:#263238"></path><path d="M327.78,127.05c-.33.42-2.75-1-5.94-.68s-5.36,2.16-5.75,1.8c-.18-.15.12-.89,1.06-1.73a8.25,8.25,0,0,1,4.56-1.93,7.93,7.93,0,0,1,4.77,1C327.54,126.19,327.94,126.86,327.78,127.05Z" style="fill:#263238"></path><path d="M294.28,139.12a3,3,0,0,1-2.55,3.28A2.85,2.85,0,0,1,288.4,140a3,3,0,0,1,2.56-3.28A2.85,2.85,0,0,1,294.28,139.12Z" style="fill:#263238"></path><path d="M296.48,130.8c-.33.42-2.74-1-5.93-.68s-5.37,2.16-5.75,1.8c-.19-.16.11-.89,1.06-1.74a8.17,8.17,0,0,1,4.56-1.92,7.88,7.88,0,0,1,4.77,1C296.24,129.94,296.64,130.61,296.48,130.8Z" style="fill:#263238"></path><path d="M310.44,153.29c0-.18,1.91-.72,5.08-1.45.81-.17,1.56-.41,1.64-1a4.1,4.1,0,0,0-.78-2.36q-1.45-2.83-3-6c-4.24-8.49-7.39-15.51-7.05-15.68s4.06,6.58,8.29,15.08c1,2.09,2,4.09,2.94,6a4.79,4.79,0,0,1,.74,3.16,2,2,0,0,1-1.22,1.32,5.5,5.5,0,0,1-1.36.34C312.47,153.25,310.47,153.47,310.44,153.29Z" style="fill:#263238"></path><path d="M296.05,118.22c-.23.89-3.46.8-7.15,1.63s-6.62,2.15-7.2,1.43c-.26-.35.19-1.22,1.32-2.19a12.17,12.17,0,0,1,5.2-2.42,12.31,12.31,0,0,1,5.73.09C295.38,117.18,296.14,117.79,296.05,118.22Z" style="fill:#263238"></path><path d="M325.67,117.94c-.48.78-2.76.25-5.4.48s-4.83,1-5.42.27c-.27-.35,0-1.11.92-1.89a7.87,7.87,0,0,1,8.73-.61C325.5,116.84,325.89,117.56,325.67,117.94Z" style="fill:#263238"></path><path d="M263.8,145.11c-.37-.12-14.68-2.79-12.8,11.36s15.69,9.34,15.66,8.93S263.8,145.11,263.8,145.11Z" style="fill:#ffbf9d"></path><path d="M261.63,160.62c-.07,0-.23.2-.62.45a2.46,2.46,0,0,1-1.83.28c-1.57-.35-3.15-2.56-3.55-5.1a8.19,8.19,0,0,1,.22-3.62,2.83,2.83,0,0,1,1.6-2.13A1.24,1.24,0,0,1,259,151c.25.37.19.66.27.68s.27-.28.08-.85a1.56,1.56,0,0,0-.67-.81,1.87,1.87,0,0,0-1.41-.18,3.51,3.51,0,0,0-2.29,2.53,8.53,8.53,0,0,0-.33,4.06c.47,2.84,2.29,5.31,4.41,5.63a2.68,2.68,0,0,0,2.21-.67C261.65,161,261.68,160.63,261.63,160.62Z" style="fill:#ff9a6c"></path><path d="M329.52,97.06c-2.26-3.89-5.88-6.82-9.73-9.16A46.5,46.5,0,0,0,292,81a37.87,37.87,0,0,0-25.4,12.64,40,40,0,0,0-8.91,21.16,58.68,58.68,0,0,0,2.18,23c.93,3.28,2.19,6.65,4.78,8.87,1.62,1.38,4.23,2.14,5.78.68a5.69,5.69,0,0,0,1.32-3.44c1.63-11.23,3.14-23.27-1.93-33.42a32.89,32.89,0,0,1,8.87-10,17,17,0,0,1,12.72-3.06c6.52,1.32,11,7.08,16.52,10.85a30.08,30.08,0,0,0,27.23,3.32Z" style="fill:#263238"></path><path d="M313.24,161.91a13.84,13.84,0,0,1-1.06,3.9,4.73,4.73,0,0,1-2.92,2.62,4.25,4.25,0,0,1-3.95-1.19,6.83,6.83,0,0,1-1.84-3.83c-.21-1.29.06-2.93,1.29-3.34a3.25,3.25,0,0,1,1.61,0l7.22,1.3" style="fill:#ff9a6c"></path><path d="M311.73,167.94c-.07-.2-1.41.69-3.64.3a5.17,5.17,0,0,1-3.19-1.87,5.53,5.53,0,0,1-1-4.34,4.55,4.55,0,0,1,.38-1.11c.2-.33.16-.31.45-.33s.77.13,1.15.2l1.19.21c1.54.28,2.94.51,4.11.69,2.35.36,3.82.5,3.85.34s-1.37-.6-3.68-1.18c-1.15-.28-2.53-.61-4.06-.94l-1.18-.26a12.58,12.58,0,0,0-1.32-.25,1.58,1.58,0,0,0-1,.24,1.83,1.83,0,0,0-.61.73,5.94,5.94,0,0,0-.48,1.42,6.34,6.34,0,0,0,1.31,5.28,5.81,5.81,0,0,0,4,2,5.39,5.39,0,0,0,2.9-.49C311.51,168.29,311.77,168,311.73,167.94Z" style="fill:#263238"></path><path d="M343,81.37a3.79,3.79,0,0,1,.28.94,9.07,9.07,0,0,1,.09,2.78,13,13,0,0,1-5.13,8.69c-3.48,2.77-9,3.88-14.65,3s-11.49-3.55-17.49-6S294,86.63,288.43,87.65a22.3,22.3,0,0,0-12.61,7.21,29.76,29.76,0,0,0-5.39,8.44c-.91,2.21-1.22,3.5-1.32,3.48a4.47,4.47,0,0,1,.18-1,25.29,25.29,0,0,1,.8-2.65,28.46,28.46,0,0,1,5.24-8.75,22.74,22.74,0,0,1,12.95-7.61c5.77-1.11,12.15.61,18.18,3.11s11.7,5.22,17.26,6,10.78-.13,14.14-2.69A13,13,0,0,0,343,85.05,14.48,14.48,0,0,0,343,81.37Z" style="fill:#455a64"></path><path d="M250.13,124.47a10,10,0,0,1,.55-3.91,24.48,24.48,0,0,1,8-12.31,8.92,8.92,0,0,1,3.88-2,4.73,4.73,0,0,1,3,.34c.63.32.87.65.83.69a5.48,5.48,0,0,0-3.65-.39c-2.22.57-4.72,3-7,5.76a28.36,28.36,0,0,0-4.4,8.14C250.51,123,250.28,124.49,250.13,124.47Z" style="fill:#455a64"></path><path d="M253.88,136.71a10.92,10.92,0,0,1,.8-3.89,26.44,26.44,0,0,1,12.12-14.5,11,11,0,0,1,3.69-1.48,38.8,38.8,0,0,1-3.35,2,30.32,30.32,0,0,0-11.85,14.17A38,38,0,0,1,253.88,136.71Z" style="fill:#455a64"></path><path d="M330.08,216.82s15.17,19.57,18.82,26.92,29.81,88.56,29.81,88.56l-11.35,4.77Z" style="fill:#455a64"></path><polygon points="269.05 198.5 269.05 188.69 324.17 206.62 338.93 230.25 350.31 263.26 318.41 215.31 269.05 198.5" style="fill:#ebebeb"></polygon><path d="M265.77,207.93s-23.38,28-22.88,46.16c.5,17.91,24.79,126.74,24.79,126.74l-5.88,19.45-6.37,64.82h132.5l-9.22-132.8c-1.47-.08-29-76.11-29-76.11L318.84,213.4l-50.75-18.29Z" style="fill:#455a64"></path><path d="M366.74,300.67s9.27-.36,14.11,1.8,8.93,1.08,12.35,7.77,7.42,9.72,8.26,19.87-10.12,33.67-17.36,37S366.74,300.67,366.74,300.67Z" style="fill:#455a64"></path><g style="opacity:0.30000000000000004"><path d="M263.09,299.75s54.17,50.85,61.06,55.71,7.91,35.61,16.4,36.2,36-19.76,36-19.76l-81.49-76.77Z"></path></g><path d="M339.37,345.28s-11.78,15.07-13.13,18.85-2.66,6.29-1.22,7.55a3.69,3.69,0,0,0,4.13.87c1.92-.74,11.39-13.23,11.39-13.23s-12.56,17.91-13.13,21,1.89,4.59,4.77,4.05,8.36-8.63,8.36-8.63-7.77,9-6.13,10.52,3.53,1.71,5.69.63,7.64-8.18,7.64-8.18-3.78,4-1.71,5,2.25,1.1,4.05-.39,17.68-17,17.68-17l-10-6.86Z" style="fill:#ffbf9d"></path><path d="M344.2,354.49a21.2,21.2,0,0,1-1.84,2.52l-4.6,6c-1.8,2.33-3.49,4.4-4.77,5.86a15.89,15.89,0,0,1-2.16,2.26,20.77,20.77,0,0,1,1.88-2.5l4.64-5.94c1.8-2.33,3.47-4.42,4.72-5.9A16.41,16.41,0,0,1,344.2,354.49Z" style="fill:#ff9a6c"></path><path d="M352.55,361.71a98.24,98.24,0,0,1-6.28,7.82,98.4,98.4,0,0,1-6.68,7.48,95.57,95.57,0,0,1,6.28-7.82A98.4,98.4,0,0,1,352.55,361.71Z" style="fill:#ff9a6c"></path><path d="M359.24,366.24a96.93,96.93,0,0,1-6.58,7.57,95.54,95.54,0,0,1-7,7.22,98.69,98.69,0,0,1,6.58-7.57A93.29,93.29,0,0,1,359.24,366.24Z" style="fill:#ff9a6c"></path><path d="M272.94,225.34c7.61-1.61,17.27-2.28,24.63,1.89l40.19,36.26s56.65,63.55,58.87,67.09,5.21,24.46-3.37,35.12S375,372.26,364,369.75c-8.71-2-69.62-46.75-94.66-65.34a47.8,47.8,0,0,1-17.8-26,57.69,57.69,0,0,1-2-20.66" style="fill:#455a64"></path><path d="M249.55,257.8s0,.36-.07,1.05-.1,1.71-.12,3.06a58.66,58.66,0,0,0,1.18,11.71,61.52,61.52,0,0,0,2.2,8.21,46.28,46.28,0,0,0,4.39,9.1,48,48,0,0,0,7.27,9c2.91,2.92,6.53,5.38,10.2,8.12,14.76,10.87,32.35,23.78,52.16,37.73,5,3.48,10.06,7,15.31,10.56s10.65,7.14,16.34,10.44A44.22,44.22,0,0,0,362.8,369a12.58,12.58,0,0,0,2.35.71l2.44.59a67.59,67.59,0,0,0,9.89,2,16.66,16.66,0,0,0,9.81-1.79,20.16,20.16,0,0,0,7.26-7.13c2.89-5,3.95-10.8,4.14-16.43a52.62,52.62,0,0,0-.34-8.43c-.17-1.38-.4-2.76-.69-4.11a13.2,13.2,0,0,0-1.35-3.83c-1.64-2.16-3.5-4.24-5.25-6.32l-5.32-6.14L375.29,306.2l-37.68-42.58v0l-40.14-36.32,0,0a25.56,25.56,0,0,0-10.29-3,43.86,43.86,0,0,0-7.88.07c-2.11.21-3.71.48-4.78.66l-1.2.22c-.27.05-.41.06-.41.06s.54-.13,1.6-.35,2.66-.49,4.78-.72a43.45,43.45,0,0,1,7.91-.13,25.8,25.8,0,0,1,10.4,3h0l40.25,36.19h0c11.28,12.63,24,26.95,37.75,42.52l10.46,11.92,5.32,6.14c1.78,2.09,3.59,4.12,5.3,6.37a6.27,6.27,0,0,1,.51,1c.14.33.24.66.36,1,.23.67.38,1.35.55,2,.3,1.37.53,2.76.7,4.16a53.57,53.57,0,0,1,.35,8.51c-.2,5.68-1.26,11.56-4.22,16.68a20.58,20.58,0,0,1-7.45,7.32,17.23,17.23,0,0,1-10.1,1.84,67.12,67.12,0,0,1-10-2l-2.44-.59a13.43,13.43,0,0,1-2.42-.73,43.26,43.26,0,0,1-4.45-2.28c-5.72-3.32-11.1-6.93-16.36-10.46s-10.36-7.1-15.31-10.59c-19.81-14-37.38-26.91-52.11-37.82-3.65-2.75-7.28-5.23-10.21-8.18a48.24,48.24,0,0,1-7.29-9.11,46.82,46.82,0,0,1-4.37-9.16,61,61,0,0,1-2.17-8.26,56.79,56.79,0,0,1-1.08-11.75A33,33,0,0,1,249.55,257.8Z" style="fill:#263238"></path><path d="M351.45,260.85l-.23-.14-.64-.48c-.54-.43-1.4-1-2.4-1.89-2.07-1.68-4.9-4.29-8.29-7.62s-7.31-7.42-11.77-11.84c-2.24-2.19-4.59-4.5-7.16-6.74a74.42,74.42,0,0,0-8.3-6.49c-1.22-.88-2.54-1.55-3.77-2.3l-.18-.11,0-.18c.21-.91.42-1.81.62-2.69l.17.3L278.76,211l-9.11-2.92-2.44-.81-.64-.22-.21-.09s.08,0,.23,0l.64.18,2.48.72,9.16,2.78,30.83,9.52.22.07-.05.23c-.2.88-.4,1.78-.61,2.69l-.13-.28c1.25.76,2.59,1.44,3.81,2.32a72.93,72.93,0,0,1,8.35,6.54c2.58,2.26,4.93,4.58,7.17,6.79,4.44,4.45,8.33,8.55,11.69,11.91s6.14,6,8.16,7.73c1,.9,1.81,1.51,2.34,2l.61.51A1.26,1.26,0,0,1,351.45,260.85Z" style="fill:#263238"></path><path d="M371.34,301.79a17.13,17.13,0,0,1-1.13-2.05L367.32,294c-2.42-4.87-5.72-11.6-9.34-19.06s-6.86-14.23-9.18-19.14c-1.12-2.42-2.05-4.39-2.72-5.83-.29-.65-.53-1.18-.71-1.6a2.47,2.47,0,0,1-.22-.57,2.38,2.38,0,0,1,.31.53c.21.4.48.92.8,1.55.71,1.42,1.69,3.37,2.87,5.76,2.42,4.93,5.7,11.65,9.32,19.07l9.2,19.13,2.75,5.81A23,23,0,0,1,371.34,301.79Z" style="fill:#263238"></path><path d="M277.71,411.49l.36,0,1,.07,4,.32,14.62,1.26L347,417.57l-.28.31L343.51,405c-.5-2-1-4-1.48-6l.23.2-55.2-6.41.17-.09c-3.24,5.75-5.74,10.38-7.37,13.61-.81,1.61-1.4,2.87-1.76,3.74a7.4,7.4,0,0,0-.34,1,1.14,1.14,0,0,0-.05.35,2.54,2.54,0,0,1,.3-1.39c.33-.89.9-2.17,1.69-3.8,1.58-3.25,4-7.91,7.23-13.69l.06-.1.11,0,55.22,6.23.18,0,0,.18,1.48,6c1.08,4.4,2.15,8.71,3.17,12.84l.09.35-.36,0-49.41-4.62-14.57-1.41-3.9-.4-1-.11A1,1,0,0,1,277.71,411.49Z" style="fill:#263238"></path><g style="opacity:0.30000000000000004"><polygon points="279.5 411.66 281.87 417.82 346.94 421.7 346.94 417.82 279.5 411.66"></polygon></g></g></svg>