<svg xmlns="http://www.w3.org/2000/svg" viewBox="0 0 500 500"><g id="freepik--character-1--inject-13"><path d="M187.17,249.91a33.72,33.72,0,0,1,33.55-31.07h1.74c18.83,1.06,28.45,17.64,26.86,36.43l-3.24,75.34a3.42,3.42,0,0,1-2,2.93l-42.25,19.83,1.31-39.54s-18.11-2.77-18.37-20.87C184.69,284.22,185.89,266.21,187.17,249.91Z" style="fill:#b78876"></path><path d="M203,313.81a43.89,43.89,0,0,0,23.69-7s-5.55,13-23.61,11.44Z" style="fill:#eb996e"></path><path d="M192.32,261.61a2.59,2.59,0,0,0,2.5,2.61,2.49,2.49,0,0,0,2.66-2.34,2.59,2.59,0,0,0-2.5-2.6A2.47,2.47,0,0,0,192.32,261.61Z" style="fill:#263238"></path><path d="M190.91,257.83c.32.34,2.27-1.11,5.05-1.11s4.82,1.39,5.13,1c.14-.16-.18-.76-1.07-1.41a7.13,7.13,0,0,0-4.11-1.25,6.75,6.75,0,0,0-4,1.31C191,257.07,190.75,257.68,190.91,257.83Z" style="fill:#263238"></path><path d="M218.1,261.61a2.6,2.6,0,0,0,2.5,2.61,2.48,2.48,0,0,0,2.66-2.34,2.58,2.58,0,0,0-2.49-2.6A2.47,2.47,0,0,0,218.1,261.61Z" style="fill:#263238"></path><path d="M218.41,257.83c.32.34,2.28-1.11,5.06-1.11s4.82,1.39,5.12,1c.15-.16-.18-.76-1.07-1.41a7.1,7.1,0,0,0-4.1-1.25,6.73,6.73,0,0,0-4,1.31C218.54,257.07,218.25,257.68,218.41,257.83Z" style="fill:#263238"></path><path d="M208.36,279.86c0-.15-1.71-.45-4.51-.8-.72-.07-1.39-.21-1.51-.7a3.6,3.6,0,0,1,.47-2.1c.67-1.72,1.36-3.52,2.09-5.41,2.9-7.71,5-14,4.69-14.16s-2.92,6-5.82,13.75c-.7,1.9-1.36,3.71-2,5.44a4.12,4.12,0,0,0-.36,2.79,1.76,1.76,0,0,0,1.17,1,4.68,4.68,0,0,0,1.21.17C206.6,280,208.35,280,208.36,279.86Z" style="fill:#263238"></path><path d="M217.67,248.33c.28.75,3.05.39,6.32.77s5.9,1.28,6.33.6c.19-.33-.27-1-1.33-1.77a11.08,11.08,0,0,0-9.64-1C218.15,247.37,217.55,248,217.67,248.33Z" style="fill:#263238"></path><path d="M192.08,250.71c.49.63,2.41,0,4.71-.06s4.26.41,4.7-.25c.2-.32-.11-1-1-1.55a6.8,6.8,0,0,0-7.58.25C192.13,249.75,191.87,250.4,192.08,250.71Z" style="fill:#263238"></path><path d="M246.32,268.67c.31-.13,12.43-3.7,12.06,8.67s-12.72,9.45-12.73,9.1S246.32,268.67,246.32,268.67Z" style="fill:#b78876"></path><path d="M248.78,281.86c.05,0,.21.16.57.34a2.18,2.18,0,0,0,1.61.08c1.32-.44,2.48-2.48,2.61-4.71a7.25,7.25,0,0,0-.51-3.11,2.51,2.51,0,0,0-1.57-1.7,1.1,1.1,0,0,0-1.29.55c-.18.35-.11.59-.17.61s-.26-.21-.15-.72a1.39,1.39,0,0,1,.51-.76,1.67,1.67,0,0,1,1.2-.28,3.05,3.05,0,0,1,2.2,2,7.35,7.35,0,0,1,.64,3.47c-.15,2.49-1.5,4.78-3.3,5.24a2.28,2.28,0,0,1-2-.38C248.79,282.16,248.74,281.88,248.78,281.86Z" style="fill:#aa6550"></path><path d="M238.51,231.9,186.92,233a23.6,23.6,0,0,1,7.58-8.77,40.36,40.36,0,0,1,23.36-8.41c8.41-.14,25.54,10.1,31.63,15.91,4.88,4.64,4.85,8.65,4.85,8.65.77,6.69-3,14.3-4.46,20.86-.77,3.39-2.25,13.64-2.25,13.64h0c-2.84,0-3.9-2.28-3.47-5.08l.54-11s-9.67-6.87-5.09-19.44C240.35,238.37,241.91,233.77,238.51,231.9Z" style="fill:#455a64"></path><path d="M227.67,271a.32.32,0,0,0,.37-.27.31.31,0,1,0-.6-.12A.33.33,0,0,0,227.67,271Z" style="fill:#aa6550"></path><path d="M222.36,269.83a.36.36,0,0,0,.38-.32.34.34,0,0,0-.23-.43c-.17,0-.33.11-.38.31A.35.35,0,0,0,222.36,269.83Z" style="fill:#aa6550"></path><path d="M218.78,269.75c.17,0,.33-.19.37-.46s-.08-.51-.24-.54-.34.19-.37.46S218.61,269.73,218.78,269.75Z" style="fill:#aa6550"></path><path d="M225.07,274.36c.17,0,.31-.08.31-.19s-.14-.2-.31-.2-.31.09-.31.2S224.9,274.37,225.07,274.36Z" style="fill:#aa6550"></path><path d="M220.2,273.24a.32.32,0,0,0,.33-.32.33.33,0,0,0-.28-.37.34.34,0,0,0-.33.32A.32.32,0,0,0,220.2,273.24Z" style="fill:#aa6550"></path><path d="M194.83,270.27a.35.35,0,1,0-.23-.4A.33.33,0,0,0,194.83,270.27Z" style="fill:#aa6550"></path><path d="M191.21,270a.36.36,0,0,0,.34-.36c0-.21-.1-.4-.26-.41a.35.35,0,0,0-.35.35A.36.36,0,0,0,191.21,270Z" style="fill:#aa6550"></path><path d="M198,270.35a.28.28,0,0,0,.35-.2.29.29,0,0,0-.24-.33.3.3,0,0,0-.36.21A.28.28,0,0,0,198,270.35Z" style="fill:#aa6550"></path><path d="M195.35,274a.34.34,0,0,0,.43-.2.34.34,0,0,0-.14-.45.32.32,0,0,0-.42.2A.34.34,0,0,0,195.35,274Z" style="fill:#aa6550"></path><path d="M192.26,273.37a.26.26,0,1,0-.14-.5.26.26,0,1,0,.14.5Z" style="fill:#aa6550"></path><path d="M184.49,282.7c-1.76-.16-3,1.81-3.07,3.58s.65,3.47.74,5.23c.19,3.69-2.27,6.92-3.47,10.41a16,16,0,0,0,1.63,13.62c2.3,3.58,6.93,6.24,10.8,4.47a7.35,7.35,0,0,1-2.57,4.43c1.66,1.18,4,.73,5.73-.38s11.39,1.11,13.42,1.08c13.71-.23,25.79-6.75,31.22-21.4,1.84-5,2.69-9.53,4.52-14.5a93.86,93.86,0,0,0,3.79-15.4c.3-1.62.38-3.73-1.1-4.45s-3.3.88-3.72,2.55-.15,3.49-.77,5.1c-1.29,3.34-5.73,4.21-9.23,3.45a60,60,0,0,0-10.29-1.66c-7.7-.32-12.5,1.65-20.85,2.76-2.85.38-6.51-.63-9.28-1.42s-6.5.09-7.18,2.9" style="fill:#263238"></path><path d="M249.83,232.47a15.24,15.24,0,0,0-15.24-19c-2.41.1-4.8.78-7.2.52a37.07,37.07,0,0,0-10.24-.77c-5,.46-12.22,3.65-15.86,4.35s-6.11-3.12-6.11-3.12c-.24,1.91.17,3.36,1.6,4.08-3.79.36-6.69-4.08-6.69-4.08a5.93,5.93,0,0,0,1.71,6c-2.08,1.28-4.63,3-7,3.61,0,0-5,.71-4.26-2.08,0,0-8.63,11.69,4.75,23.08,3.75,3.2,9.94,1.39,14.25-1,3.89-2.16,7.38-5.86,11.83-5.73,4.61.14,8.64,4.49,13.17,3.58,2.37-.47,4.2-2.3,5.94-4s3.73-3.4,6.15-3.54,4.53.92,3.67,3.18l9.53-5.14" style="fill:#263238"></path><path d="M232.9,202.89a14.25,14.25,0,0,0-.58,1.34,6.26,6.26,0,0,0,.15,3.87,9.37,9.37,0,0,0,3.61,4.48,63.78,63.78,0,0,0,6.33,3.59,18.17,18.17,0,0,1,3.14,2.2,11.79,11.79,0,0,1,2.26,2.79,12.9,12.9,0,0,1,1.77,5.75,12.09,12.09,0,0,1-.44,4,6.44,6.44,0,0,1-.37,1c-.1.23-.16.35-.18.34a15.44,15.44,0,0,0,.62-5.38,12.94,12.94,0,0,0-1.81-5.54,11.79,11.79,0,0,0-2.19-2.65,17.47,17.47,0,0,0-3.06-2.12,59.87,59.87,0,0,1-6.36-3.67,9.59,9.59,0,0,1-3.67-4.74,6.24,6.24,0,0,1,0-4.05,4.61,4.61,0,0,1,.51-1C232.8,203,232.89,202.88,232.9,202.89Z" style="fill:#263238"></path><path d="M248.11,232.84a14.64,14.64,0,0,1,.13-1.46,14,14,0,0,0-.21-4,15.56,15.56,0,0,0-2.17-5.43,14.08,14.08,0,0,0-5.21-4.82c-2.25-1.22-4.61-2-6.57-3.23a10,10,0,0,1-4.2-4.28,6.16,6.16,0,0,1-.44-4,4.34,4.34,0,0,1,.41-1,1.42,1.42,0,0,1,.23-.31,9.39,9.39,0,0,0-.44,1.39,6.24,6.24,0,0,0,.57,3.82,9.92,9.92,0,0,0,4.12,4c1.91,1.13,4.26,1.93,6.57,3.18a14.25,14.25,0,0,1,5.36,5,15.24,15.24,0,0,1,2.13,5.62,13.19,13.19,0,0,1,.06,4.05,7.39,7.39,0,0,1-.22,1.08C248.17,232.72,248.13,232.85,248.11,232.84Z" style="fill:#263238"></path><path d="M228.06,206.11s-.14,0-.39,0a1.63,1.63,0,0,0-1,.3c-.78.57-.74,2.21.13,3.64a13.08,13.08,0,0,0,4.4,4c1.92,1.26,4.17,2.42,6.45,3.82a27,27,0,0,1,6,4.61,10.77,10.77,0,0,1,2.78,5.49,7.61,7.61,0,0,1-.39,4.14,5.11,5.11,0,0,1-.53,1,1.39,1.39,0,0,1-.25.31c-.05,0,.27-.48.59-1.38a7.72,7.72,0,0,0,.22-4,10.61,10.61,0,0,0-2.78-5.24,27.46,27.46,0,0,0-5.89-4.48c-2.26-1.39-4.51-2.57-6.44-3.87a13.11,13.11,0,0,1-4.47-4.25,4.89,4.89,0,0,1-.65-2.32,2,2,0,0,1,.73-1.66,1.58,1.58,0,0,1,1.13-.24A1.62,1.62,0,0,1,228.06,206.11Z" style="fill:#263238"></path><path d="M175,230.35c.09,0,.14,1.28.67,3.25a17.86,17.86,0,0,0,9.93,11.69c1.86.85,3.11,1.1,3.09,1.2a2.82,2.82,0,0,1-.89-.12,14.11,14.11,0,0,1-2.34-.74,16.9,16.9,0,0,1-10.14-11.95,14.45,14.45,0,0,1-.35-2.43A2.64,2.64,0,0,1,175,230.35Z" style="fill:#263238"></path><path d="M225,206.44a14.24,14.24,0,0,0-1.51-.66,1.6,1.6,0,0,0-1.68.34,3.11,3.11,0,0,0-.38,2.36,7.62,7.62,0,0,0,1,2.88,8.28,8.28,0,0,0,2.5,2.42,41.65,41.65,0,0,0,7.46,3.42,19.15,19.15,0,0,1,3.83,2,14.73,14.73,0,0,1,3,2.75,16,16,0,0,1,3.08,6.05,14.51,14.51,0,0,1,.46,4.56,8.17,8.17,0,0,1-.15,1.23c0,.28-.08.43-.1.42s0-.59.05-1.66a15.44,15.44,0,0,0-.62-4.45,14.22,14.22,0,0,0-1.14-2.88,15,15,0,0,0-2-3,15.32,15.32,0,0,0-2.89-2.64,19.94,19.94,0,0,0-3.73-2,39.65,39.65,0,0,1-7.53-3.5,8.59,8.59,0,0,1-2.6-2.6,7.76,7.76,0,0,1-1-3.06,3.35,3.35,0,0,1,.52-2.6,1.57,1.57,0,0,1,1-.47,2.62,2.62,0,0,1,.92.14,4.8,4.8,0,0,1,1.11.57C224.88,206.33,225,206.42,225,206.44Z" style="fill:#263238"></path><path d="M254.14,252.41c-.08.12-.77-.2-1.54-.71s-1.33-1-1.25-1.15.77.2,1.54.72S254.22,252.29,254.14,252.41Z" style="fill:#263238"></path><path d="M247.12,251c-.11.11-.42,0-.7-.32s-.43-.59-.33-.7.41.05.69.33S247.22,250.89,247.12,251Z" style="fill:#263238"></path><path d="M248.47,247.89c-.06.14-.46.1-.91-.07s-.78-.43-.73-.56.46-.1.91.07S248.52,247.76,248.47,247.89Z" style="fill:#263238"></path><path d="M251.43,244.33c0,.15-.44.22-1,.16s-.91-.22-.89-.36.44-.22.95-.16S251.45,244.19,251.43,244.33Z" style="fill:#263238"></path><path d="M245.9,242.07c.06.13-.16.37-.5.54s-.67.2-.73.07.16-.37.5-.54S245.83,241.94,245.9,242.07Z" style="fill:#263238"></path><path d="M248.36,236.84c.08.13-.18.43-.58.68s-.78.37-.86.25.18-.43.58-.68S248.28,236.72,248.36,236.84Z" style="fill:#263238"></path><path d="M252.15,239.2c.08.12-.1.39-.41.62s-.63.32-.72.2.1-.39.41-.62S252.06,239.08,252.15,239.2Z" style="fill:#263238"></path><path d="M255.22,242.38c-.06.13-.47.08-.95,0s-.88-.17-.89-.31.43-.29,1-.2S255.28,242.25,255.22,242.38Z" style="fill:#263238"></path><path d="M254.61,247.91c-.08.12-.42,0-.76-.2s-.55-.5-.47-.62.42,0,.76.19S254.69,247.79,254.61,247.91Z" style="fill:#263238"></path><path d="M250.41,258.36c-.12.08-.42-.12-.67-.46s-.37-.69-.26-.77.42.12.67.46S250.52,258.27,250.41,258.36Z" style="fill:#263238"></path><path d="M216.43,283c-.4-.08-.78,2.58-3.32,4.15s-5.34.89-5.41,1.25c-.06.17.56.61,1.75.81a6.7,6.7,0,0,0,4.5-.9,5.84,5.84,0,0,0,2.61-3.5C216.82,283.67,216.61,283,216.43,283Z" style="fill:#fafafa"></path><path d="M238.88,295.66a37.62,37.62,0,0,0,2.19-5.9,37.21,37.21,0,0,0,.65-6.27,5.22,5.22,0,0,1,.29,1.86,17,17,0,0,1-.43,4.53,16.8,16.8,0,0,1-1.62,4.24A5.11,5.11,0,0,1,238.88,295.66Z" style="fill:#455a64"></path><path d="M225,317.18c-.08-.08,1.4-1.48,3.34-4.09a41.41,41.41,0,0,0,3.06-4.81,39.85,39.85,0,0,0,4.34-13.2,40.86,40.86,0,0,0,.39-5.69c0-3.26-.37-5.26-.26-5.27a8.28,8.28,0,0,1,.28,1.39,14.6,14.6,0,0,1,.21,1.66c0,.65.15,1.39.14,2.21a35.26,35.26,0,0,1-.29,5.76,40.17,40.17,0,0,1-1.57,6.89,40.87,40.87,0,0,1-2.82,6.48,36.27,36.27,0,0,1-3.19,4.8,21.18,21.18,0,0,1-1.42,1.7,14,14,0,0,1-1.15,1.21A8,8,0,0,1,225,317.18Z" style="fill:#455a64"></path><path d="M226.45,311.5A67.11,67.11,0,0,1,229,305a9.41,9.41,0,0,1-.87,3.43A9.17,9.17,0,0,1,226.45,311.5Z" style="fill:#455a64"></path><path d="M220.66,314.35c-.13-.08,1.23-2.48,2.4-5.65s1.71-5.87,1.87-5.84a23.78,23.78,0,0,1-4.27,11.49Z" style="fill:#455a64"></path><path d="M207.89,303.83a16.27,16.27,0,0,1,1.57-2.34,16.68,16.68,0,0,1,1.55-2.36,5.26,5.26,0,0,1-1.11,2.64C209,303.11,208,303.93,207.89,303.83Z" style="fill:#455a64"></path><path d="M189.9,311.5a4.48,4.48,0,0,1,.29-1.92,11.46,11.46,0,0,1,6-7A4.55,4.55,0,0,1,198,302a16,16,0,0,1-1.68.91,13.28,13.28,0,0,0-3.49,2.88,13.45,13.45,0,0,0-2.3,3.89A15.57,15.57,0,0,1,189.9,311.5Z" style="fill:#455a64"></path><path d="M185.65,305.46a6.77,6.77,0,0,1,2.32-2.59,6.87,6.87,0,0,1,3.11-1.58c.06.14-1.31.85-2.79,2S185.76,305.56,185.65,305.46Z" style="fill:#455a64"></path><path d="M195.55,312.37A7.09,7.09,0,0,1,196,310a15.83,15.83,0,0,1,2.78-5.22,15.43,15.43,0,0,1,4.51-3.82,7,7,0,0,1,2.26-.92c0,.08-.82.44-2.08,1.24a17.63,17.63,0,0,0-7.12,8.84C195.81,311.47,195.64,312.39,195.55,312.37Z" style="fill:#455a64"></path><path d="M202.77,289.86c0,.06-.56.12-1.41-.17a4.79,4.79,0,0,1-2.61-2.2,4.85,4.85,0,0,1-.46-3.39c.21-.87.56-1.31.61-1.28s-.15.52-.25,1.34a4.92,4.92,0,0,0,2.85,5.19C202.25,289.71,202.78,289.77,202.77,289.86Z" style="fill:#455a64"></path><path d="M205.37,289.16c0,.06-.43.21-1.18.13a4.24,4.24,0,0,1-2.56-1.31,4.15,4.15,0,0,1-1.09-2.65c0-.75.16-1.18.22-1.17s0,.46.14,1.13a4.4,4.4,0,0,0,3.36,3.64C204.92,289.09,205.37,289.07,205.37,289.16Z" style="fill:#455a64"></path><path d="M210.08,287c0,.06-.33.28-1,.48a4.64,4.64,0,0,1-2.64,0,3.28,3.28,0,0,1-2-1.75c-.27-.66-.15-1.11-.1-1.1s.12.41.43.93a3.38,3.38,0,0,0,1.84,1.42,5.41,5.41,0,0,0,2.4.11C209.66,287,210.05,286.88,210.08,287Z" style="fill:#455a64"></path><path d="M192.54,217.72a7.9,7.9,0,0,0,.77,2.59,8.13,8.13,0,0,0,5.82,4.08,13,13,0,0,0,5.06-.15,26.08,26.08,0,0,0,5.54-2c3.77-1.76,8-3.84,12.72-4.9a25.85,25.85,0,0,1,7.06-.64,20.24,20.24,0,0,1,6.46,1.43,15.56,15.56,0,0,1,5,3.28,12.73,12.73,0,0,1,2.89,4.34,12,12,0,0,1,.57,7.43,7.53,7.53,0,0,1-1.14,2.51,16.05,16.05,0,0,0,.94-2.56,12,12,0,0,0-.71-7.24,12.61,12.61,0,0,0-2.85-4.18,15.26,15.26,0,0,0-4.9-3.13,19.71,19.71,0,0,0-6.3-1.37,25.74,25.74,0,0,0-6.92.64c-4.69,1-8.83,3.07-12.63,4.83a26.86,26.86,0,0,1-5.65,1.94,13.35,13.35,0,0,1-5.22.08,8.72,8.72,0,0,1-3.9-1.81,7.55,7.55,0,0,1-2-2.54,6,6,0,0,1-.58-2,3.55,3.55,0,0,1,0-.53C192.53,217.78,192.53,217.72,192.54,217.72Z" style="fill:#455a64"></path><path d="M241.84,237.3a17.72,17.72,0,0,0,.8-3.21,13.59,13.59,0,0,0-1.88-8.64,13,13,0,0,0-1.81-2.34,12.54,12.54,0,0,0-2.56-1.93,15,15,0,0,0-6.79-1.85,21.78,21.78,0,0,0-7.75,1.14,39.64,39.64,0,0,0-7.67,3.64c-5,3-9.57,6.32-14.3,8.33a26.75,26.75,0,0,1-7,2,15.24,15.24,0,0,1-6.31-.39,9.4,9.4,0,0,1-4.43-2.75,8,8,0,0,1-1.81-3.49,6.16,6.16,0,0,1-.09-2.49,3.54,3.54,0,0,1,.23-.83,7.38,7.38,0,0,0,.05,3.27,8,8,0,0,0,1.84,3.35,9.13,9.13,0,0,0,4.31,2.58c3.67,1.08,8.4.34,13-1.69s9.17-5.33,14.23-8.34a39.75,39.75,0,0,1,7.77-3.67,21.82,21.82,0,0,1,7.93-1.14,15.49,15.49,0,0,1,7,2,12.71,12.71,0,0,1,2.62,2,13.36,13.36,0,0,1,1.85,2.43,13.75,13.75,0,0,1,1.77,8.85,12.84,12.84,0,0,1-.64,2.41A5,5,0,0,1,241.84,237.3Z" style="fill:#455a64"></path><path d="M179.61,233.22s.6.88,1.92,2.25a17.52,17.52,0,0,0,12.11,5.21,17.28,17.28,0,0,0,6.18-1.13C204,238,208,235,212.06,231.74a62.79,62.79,0,0,1,6.18-4.46,24.62,24.62,0,0,1,6.5-2.9,16.62,16.62,0,0,1,6.43-.53,11.32,11.32,0,0,1,5.24,2,10.16,10.16,0,0,1,4.28,6.73,7.47,7.47,0,0,1,0,2.21,5.32,5.32,0,0,1-.19.74,9.27,9.27,0,0,0-4.28-9.38,10.92,10.92,0,0,0-5.08-1.88,16.31,16.31,0,0,0-6.25.56c-4.35,1.15-8.45,4.08-12.49,7.31s-8.07,6.32-12.4,7.86a16.79,16.79,0,0,1-11.87,0,17.14,17.14,0,0,1-6.73-4.45,9.22,9.22,0,0,1-.82-1,6,6,0,0,1-.55-.75A4.28,4.28,0,0,1,179.61,233.22Z" style="fill:#455a64"></path><path d="M77.42,474.7,202.34,339.14l.3-9,44.72-15.79,2.81,10.79s19.47,22.08,30.91,48.75,14.58,100.53,14.58,100.53Z" style="fill:#37474F"></path><path d="M247.09,321.83s-.14.09-.43.21l-1.29.5c-1.11.42-2.73,1-4.75,1.71-4,1.4-9.62,3.25-15.81,5.23L209,334.57l-4.8,1.55-1.31.4a1.59,1.59,0,0,1-.47.11s.14-.09.43-.21l1.28-.49c1.12-.43,2.74-1,4.75-1.71,4-1.41,9.62-3.26,15.82-5.24l15.86-5.08,4.8-1.56,1.31-.4A1.93,1.93,0,0,1,247.09,321.83Z" style="fill:#fafafa"></path><path d="M249.49,326.16s-.14.08-.44.18l-1.3.43-4.81,1.47c-4.07,1.23-9.71,2.89-15.94,4.68s-11.89,3.4-16,4.54l-4.86,1.31-1.32.34a2.07,2.07,0,0,1-.48.08,1.83,1.83,0,0,1,.45-.19l1.3-.42,4.81-1.48c4.07-1.22,9.71-2.88,15.94-4.68s11.88-3.39,16-4.53l4.86-1.31,1.33-.34A1.51,1.51,0,0,1,249.49,326.16Z" style="fill:#263238"></path><path d="M264.85,370.25a10,10,0,0,1-.59-1.47c-.35-1-.87-2.33-1.55-4A98.35,98.35,0,0,0,256.43,352a97.21,97.21,0,0,0-8.11-11.65c-1.14-1.42-2.09-2.54-2.77-3.31a9.45,9.45,0,0,1-1-1.23,9.1,9.1,0,0,1,1.15,1.1c.72.72,1.72,1.81,2.9,3.2a83.16,83.16,0,0,1,14.45,24.48c.64,1.71,1.11,3.11,1.4,4.09A8.65,8.65,0,0,1,264.85,370.25Z" style="fill:#263238"></path><path d="M256.05,463.55c-.14,0,2-19.17,4.73-42.77s5.11-42.72,5.25-42.7-2,19.16-4.73,42.76S256.19,463.56,256.05,463.55Z" style="fill:#263238"></path><path d="M251.29,346c0,.14-14.16,2.2-31.68,4.59s-31.73,4.21-31.74,4.07,14.16-2.2,31.67-4.59S251.27,345.87,251.29,346Z" style="fill:#fafafa"></path><path d="M263.39,345.28a17.51,17.51,0,0,1-3.65,2.13,16.81,16.81,0,0,1-3.89,1.66,33.87,33.87,0,0,1,7.54-3.79Z" style="fill:#fafafa"></path><path d="M260.54,367.23a.74.74,0,0,1-.22.08l-.66.16-2.54.59c-1.1.25-2.45.55-4,.86s-3.36.68-5.36,1c-4,.73-8.74,1.47-14,2.15s-11.16,1.23-17.32,1.62-12.05.52-17.4.52-10.16-.16-14.2-.4c-2-.09-3.84-.24-5.44-.36s-3-.23-4.11-.35l-2.59-.27-.67-.08-.23,0a.87.87,0,0,1,.24,0l.67,0,2.6.17c1.13.08,2.5.18,4.11.26s3.42.22,5.44.28c4,.19,8.84.3,14.18.29s11.21-.19,17.37-.56,12-.95,17.29-1.58,10.06-1.35,14-2c2-.31,3.79-.67,5.37-.95s2.93-.55,4-.77l2.56-.49.66-.12A.87.87,0,0,1,260.54,367.23Z" style="fill:#fafafa"></path><path d="M273.9,360.65a26.32,26.32,0,0,1-4.41,2.5,24.54,24.54,0,0,1-4.64,2,49.07,49.07,0,0,1,9-4.53Z" style="fill:#fafafa"></path><path d="M256.21,394.06a.83.83,0,0,1-.25.06l-.76.12-2.94.41c-1.27.18-2.84.39-4.66.57s-3.88.44-6.18.6-4.81.4-7.51.53-5.6.25-8.64.34c-6.08.12-12.78.06-19.8-.3s-13.69-1-19.73-1.79c-3-.42-5.88-.79-8.55-1.25s-5.15-.88-7.41-1.32-4.3-.87-6.09-1.25-3.32-.74-4.57-1.06l-2.87-.72-.75-.2-.25-.08a.86.86,0,0,1,.26,0l.76.15,2.9.63c1.25.28,2.79.62,4.58,1s3.83.8,6.09,1.18,4.74.86,7.42,1.25,5.53.8,8.54,1.2c6,.73,12.69,1.37,19.7,1.75s13.69.43,19.76.34c3-.08,5.93-.13,8.63-.29s5.21-.29,7.5-.47,4.36-.36,6.18-.52,3.39-.33,4.67-.48l2.94-.32.77-.07Z" style="fill:#fafafa"></path><path d="M284.5,385.67a79.12,79.12,0,0,1-8.79,2.54,80,80,0,0,1-8.93,2,80.56,80.56,0,0,1,8.8-2.54A80.72,80.72,0,0,1,284.5,385.67Z" style="fill:#fafafa"></path><path d="M259,429.29l-.32.06-.95.12-3.64.42-2.63.29c-1,.09-2,.15-3.15.24-2.25.15-4.82.39-7.67.45l-4.46.15c-1.56,0-3.17,0-4.85,0-3.35,0-6.92-.14-10.68-.29a237.71,237.71,0,0,1-24.35-2.63,238.73,238.73,0,0,1-23.9-5.35c-3.61-1.07-7.06-2.05-10.21-3.17-1.59-.55-3.13-1-4.59-1.58l-4.18-1.58c-2.68-1-5-2-7.11-2.89-1-.44-2-.84-2.9-1.24l-2.4-1.12-3.31-1.57-.86-.42a1.64,1.64,0,0,1-.28-.16l.31.11.87.37L141.1,411l2.42,1.09,2.91,1.19c2.09.84,4.45,1.87,7.13,2.82l4.19,1.55c1.46.53,3,1,4.58,1.54,3.16,1.1,6.6,2.06,10.2,3.12,7.25,2,15.31,3.85,23.86,5.29s16.79,2.21,24.29,2.68c3.76.15,7.32.35,10.66.33,1.68,0,3.29,0,4.84,0l4.46-.11c2.84,0,5.41-.25,7.66-.37l3.14-.2,2.64-.24,3.65-.33.95-.07A1.45,1.45,0,0,1,259,429.29Z" style="fill:#fafafa"></path><path d="M291.74,422.38a4.12,4.12,0,0,1-1,.54c-.64.32-1.59.73-2.79,1.2a51,51,0,0,1-9.69,2.62,50.18,50.18,0,0,1-10,.64c-1.29-.05-2.33-.14-3-.23a5.22,5.22,0,0,1-1.1-.19c0-.09,1.59,0,4.14.05a58.24,58.24,0,0,0,19.58-3.24C290.25,422.94,291.71,422.3,291.74,422.38Z" style="fill:#fafafa"></path><path d="M246.73,468.26h-.35l-1,0-3.93-.22c-1.71-.09-3.79-.22-6.21-.45s-5.18-.41-8.21-.78l-4.77-.54c-1.66-.19-3.38-.45-5.16-.68-3.57-.45-7.36-1.1-11.35-1.74-8-1.39-16.67-3.16-25.73-5.4s-17.58-4.82-25.26-7.34c-3.83-1.31-7.48-2.52-10.84-3.8-1.68-.63-3.32-1.21-4.87-1.82l-4.46-1.77c-2.85-1.1-5.38-2.23-7.61-3.17s-4.15-1.81-5.7-2.53l-3.57-1.66-.92-.44a1.46,1.46,0,0,1-.31-.17l.33.12.95.4,3.6,1.57c1.56.69,3.48,1.53,5.73,2.44s4.78,2,7.64,3.1l4.46,1.73c1.56.61,3.2,1.17,4.88,1.79,3.37,1.26,7,2.46,10.84,3.75,7.68,2.49,16.2,5,25.23,7.29s17.75,4,25.7,5.44c4,.65,7.76,1.31,11.32,1.78,1.78.24,3.49.52,5.15.72l4.76.56c3,.39,5.78.62,8.19.86s4.5.42,6.21.54l3.92.31,1,.09A1.48,1.48,0,0,1,246.73,468.26Z" style="fill:#fafafa"></path><path d="M294.34,454.7a5.6,5.6,0,0,1-1.11.66c-.73.4-1.81.92-3.18,1.5a49.75,49.75,0,0,1-22.7,3.74c-1.48-.11-2.68-.26-3.49-.4a6.92,6.92,0,0,1-1.27-.27,6,6,0,0,1,1.29.06c.82.09,2,.18,3.49.24a55.4,55.4,0,0,0,22.54-3.71c1.38-.53,2.48-1,3.23-1.34A6,6,0,0,1,294.34,454.7Z" style="fill:#fafafa"></path><g style="opacity:0.2"><path d="M269,463c-3.24-3.36-7.67-5.78-9.66-10-2.23-4.72-.75-10.25.47-15.32a141.07,141.07,0,0,0,3.85-27.43c.16-3.87-.52-8.76-4.22-9.91-3.28-1-6.49,1.81-8.22,4.77-4.28,7.32-4.26,16.29-6.46,24.47a46.37,46.37,0,0,1-33.08,32.3c-8.42,2-17.22,1.66-25.86,2.35a42,42,0,0,0-24.27,10.39l108.86.75C274,472.37,272.23,466.34,269,463Z"></path></g></g></svg>